<svg version="1.1" id="_x32_" xmlns="http://www.w3.org/2000/svg" xmlns:xlink="http://www.w3.org/1999/xlink" x="0px" y="0px" viewBox="0 0 512 512" style="width: 128px; height: 128px; opacity: 1;" xml:space="preserve">
<style type="text/css">.st0{fill:#4B4B4B;}</style>
<g>
	<path class="st0" d="M353.597,56.585H312.95v25.882c0,3.113-0.342,6.154-0.96,9.094h45.959c5.091,0,9.22,4.13,9.22,9.22v356.46
		c0,5.091-4.13,9.22-9.22,9.22H51.094c-5.091,0-9.221-4.13-9.221-9.22v-356.46c0-5.091,4.13-9.22,9.221-9.22h45.959
		c-0.62-2.939-0.961-5.981-0.961-9.094V56.585H55.446c-25.462,0-46.103,20.641-46.103,46.102v363.21
		C9.343,491.359,29.984,512,55.446,512h298.151c25.461,0,46.102-20.641,46.102-46.103v-363.21
		C399.699,77.226,379.058,56.585,353.597,56.585z"></path>
	<path class="st0" d="M140.018,110.129h129.007c15.28,0,27.661-12.382,27.661-27.662v-3.177V57.943v-3.177
		c0-15.28-12.381-27.661-27.661-27.661h-34.96C232.675,11.929,220.056,0,204.521,0c-15.542,0-28.162,11.929-29.552,27.105h-34.952
		c-15.28,0-27.662,12.381-27.662,27.661v3.177v21.348v3.177C112.356,97.748,124.738,110.129,140.018,110.129z M204.521,16.265
		c7.481,0,13.548,6.068,13.548,13.548c0,7.489-6.068,13.557-13.548,13.557c-7.489,0-13.557-6.068-13.557-13.557
		C190.964,22.332,197.032,16.265,204.521,16.265z"></path>
	<path class="st0" d="M467.133,53.122c0.127,0,0.246,0.032,0.373,0.04c0.099-0.008,0.194-0.032,0.294-0.032L467.133,53.122z"></path>
	<path class="st0" d="M494.636,80.609c-0.008-15.05-12.12-27.248-27.13-27.447c-15.046,0.15-27.2,12.381-27.192,27.455v34.586
		h54.314L494.636,80.609z"></path>
	<path class="st0" d="M432.284,427.555c0,7.068,5.742,12.81,12.818,12.818l44.736-0.008c7.068,0.008,12.818-5.742,12.818-12.818
		V309.683l-70.38-0.008L432.284,427.555z"></path>
	<polygon class="st0" points="462.749,494.401 462.757,510.737 472.176,510.729 472.176,494.401 495.739,447.901 439.194,447.909 	
		"></polygon>
	<path class="st0" d="M432.284,125.385l-0.008,171.734h70.38V125.385H432.284z M478.466,238.365c0,6.068-4.924,10.992-11,11
		c-6.068,0-10.991-4.932-10.991-11v-83.564c0-6.068,4.923-10.991,10.991-10.991c6.068-0.008,11,4.923,11,10.991V238.365z"></path>
</g>
</svg>
